<svg xmlns="http://www.w3.org/2000/svg" viewBox="0 0 500 370" width="500" height="370" font-family="Georgia, serif">
  <g stroke="#d7d7d7" stroke-width="1">
    <line x1="70" y1="310" x2="445" y2="310"/><line x1="70" y1="255" x2="445" y2="255"/>
    <line x1="70" y1="200" x2="445" y2="200"/><line x1="70" y1="145" x2="445" y2="145"/>
    <line x1="70" y1="90" x2="445" y2="90"/><line x1="70" y1="35" x2="445" y2="35"/>
    <line x1="70" y1="35" x2="70" y2="310"/><line x1="124" y1="35" x2="124" y2="310"/>
    <line x1="177" y1="35" x2="177" y2="310"/><line x1="231" y1="35" x2="231" y2="310"/>
    <line x1="284" y1="35" x2="284" y2="310"/><line x1="338" y1="35" x2="338" y2="310"/>
    <line x1="391" y1="35" x2="391" y2="310"/><line x1="445" y1="35" x2="445" y2="310"/>
  </g>
  <line x1="65" y1="310" x2="455" y2="310" stroke="#000" stroke-width="1.6"/>
  <line x1="70" y1="318" x2="70" y2="25" stroke="#000" stroke-width="1.6"/>
  <line x1="70" y1="255" x2="445" y2="101" stroke="#555" stroke-width="2.2"/>
  <g fill="#111">
    <circle cx="70" cy="266" r="4"/><circle cx="124" cy="222" r="4"/><circle cx="177" cy="222" r="4"/>
    <circle cx="231" cy="178" r="4"/><circle cx="284" cy="178" r="4"/><circle cx="338" cy="134" r="4"/>
    <circle cx="391" cy="134" r="4"/><circle cx="445" cy="90" r="4"/>
  </g>
  <g font-size="11" text-anchor="middle">
    <text x="70" y="329">0</text><text x="177" y="329">2</text><text x="284" y="329">4</text>
    <text x="391" y="329">6</text>
  </g>
  <g font-size="11" text-anchor="end">
    <text x="61" y="314">0</text><text x="61" y="259">5</text><text x="61" y="204">10</text>
    <text x="61" y="149">15</text><text x="61" y="94">20</text><text x="61" y="39">25</text>
  </g>
  <text x="320" y="62" font-size="14">y = 2x + 5</text>
  <text x="432" y="82" text-anchor="end" font-size="14" font-style="italic">P</text>
  <text x="455" y="300" font-size="14" font-style="italic">x</text>
  <text x="79" y="28" font-size="14" font-style="italic">y</text>
</svg>
