<svg xmlns="http://www.w3.org/2000/svg" viewBox="0 0 500 370" width="500" height="370" font-family="Georgia, serif">
  <g stroke="#d7d7d7" stroke-width="1">
    <line x1="70" y1="310" x2="445" y2="310"/><line x1="70" y1="260" x2="445" y2="260"/>
    <line x1="70" y1="210" x2="445" y2="210"/><line x1="70" y1="160" x2="445" y2="160"/>
    <line x1="70" y1="110" x2="445" y2="110"/><line x1="70" y1="60" x2="445" y2="60"/>
    <line x1="70" y1="35" x2="70" y2="310"/><line x1="112" y1="35" x2="112" y2="310"/>
    <line x1="153" y1="35" x2="153" y2="310"/><line x1="195" y1="35" x2="195" y2="310"/>
    <line x1="237" y1="35" x2="237" y2="310"/><line x1="278" y1="35" x2="278" y2="310"/>
    <line x1="320" y1="35" x2="320" y2="310"/><line x1="362" y1="35" x2="362" y2="310"/>
    <line x1="403" y1="35" x2="403" y2="310"/><line x1="445" y1="35" x2="445" y2="310"/>
  </g>
  <line x1="65" y1="310" x2="455" y2="310" stroke="#000" stroke-width="1.6"/>
  <line x1="70" y1="318" x2="70" y2="25" stroke="#000" stroke-width="1.6"/>
  <line x1="70" y1="280" x2="445" y2="55" stroke="#555" stroke-width="2"/>
  <g fill="#111">
    <circle cx="112" cy="250" r="4"/><circle cx="153" cy="220" r="4"/><circle cx="195" cy="210" r="4"/>
    <circle cx="237" cy="170" r="4"/><circle cx="278" cy="160" r="4"/><circle cx="320" cy="120" r="4"/>
    <circle cx="362" cy="110" r="4"/><circle cx="403" cy="70" r="4"/>
  </g>
  <g fill="#fff" stroke="#000" stroke-width="2">
    <circle cx="153" cy="230" r="5"/><circle cx="403" cy="80" r="5"/>
  </g>
  <g font-size="12" fill="#000">
    <text x="160" y="246">(2, 8)</text><text x="353" y="67">(8, 23)</text>
  </g>
  <g font-size="11" text-anchor="middle">
    <text x="70" y="329">0</text><text x="153" y="329">2</text><text x="237" y="329">4</text>
    <text x="320" y="329">6</text><text x="403" y="329">8</text>
  </g>
  <g font-size="11" text-anchor="end">
    <text x="61" y="314">0</text><text x="61" y="264">5</text><text x="61" y="214">10</text>
    <text x="61" y="164">15</text><text x="61" y="114">20</text><text x="61" y="64">25</text>
  </g>
  <text x="258" y="357" text-anchor="middle" font-size="13">Fan setting</text>
  <text x="18" y="175" text-anchor="middle" font-size="13" transform="rotate(-90 18 175)">Airflow</text>
</svg>
