<svg xmlns="http://www.w3.org/2000/svg" viewBox="0 0 380 360" width="380" height="360" font-family="Georgia, serif">
  <defs>
    <marker id="ah4" viewBox="0 0 10 10" refX="8" refY="5" markerWidth="8" markerHeight="8" orient="auto">
      <path d="M0,0 L10,5 L0,10 z" fill="#000000"/>
    </marker>
  </defs>
  <g stroke="#cccccc" stroke-width="1">
    <line x1="32" y1="56" x2="32" y2="320"/>
    <line x1="56" y1="56" x2="56" y2="320"/>
    <line x1="104" y1="56" x2="104" y2="320"/>
    <line x1="128" y1="56" x2="128" y2="320"/>
    <line x1="152" y1="56" x2="152" y2="320"/>
    <line x1="176" y1="56" x2="176" y2="320"/>
    <line x1="200" y1="56" x2="200" y2="320"/>
    <line x1="224" y1="56" x2="224" y2="320"/>
    <line x1="248" y1="56" x2="248" y2="320"/>
    <line x1="272" y1="56" x2="272" y2="320"/>
    <line x1="32" y1="56" x2="272" y2="56"/>
    <line x1="32" y1="80" x2="272" y2="80"/>
    <line x1="32" y1="104" x2="272" y2="104"/>
    <line x1="32" y1="128" x2="272" y2="128"/>
    <line x1="32" y1="152" x2="272" y2="152"/>
    <line x1="32" y1="176" x2="272" y2="176"/>
    <line x1="32" y1="224" x2="272" y2="224"/>
    <line x1="32" y1="248" x2="272" y2="248"/>
    <line x1="32" y1="272" x2="272" y2="272"/>
    <line x1="32" y1="296" x2="272" y2="296"/>
    <line x1="32" y1="320" x2="272" y2="320"/>
  </g>
  <g stroke="#000000" stroke-width="1.4">
    <line x1="22" y1="200" x2="284" y2="200" marker-start="url(#ah4)" marker-end="url(#ah4)"/>
    <line x1="80" y1="332" x2="80" y2="44" marker-start="url(#ah4)" marker-end="url(#ah4)"/>
  </g>
  <path d="M 76 56 Q 152 536 228 56" fill="none" stroke="#000000" stroke-width="1.8"/>
  <g font-size="10" fill="#000000">
    <text x="32" y="213" text-anchor="middle">-2</text>
    <text x="128" y="213" text-anchor="middle">2</text>
    <text x="176" y="213" text-anchor="middle">4</text>
    <text x="224" y="213" text-anchor="middle">6</text>
    <text x="272" y="213" text-anchor="middle">8</text>
    <text x="74" y="60" text-anchor="end">6</text>
    <text x="74" y="108" text-anchor="end">4</text>
    <text x="74" y="156" text-anchor="end">2</text>
    <text x="74" y="252" text-anchor="end">-2</text>
    <text x="74" y="300" text-anchor="end">-4</text>
  </g>
  <g font-size="13" fill="#000000">
    <text x="70" y="214">O</text>
    <text x="292" y="204" font-style="italic">x</text>
    <text x="86" y="46" font-style="italic">y</text>
  </g>
</svg>
