<svg xmlns="http://www.w3.org/2000/svg" viewBox="0 0 380 350" width="380" height="350" font-family="Georgia, serif">
  <defs>
    <marker id="ahq7" viewBox="0 0 10 10" refX="8" refY="5" markerWidth="8" markerHeight="8" orient="auto-start-reverse">
      <path d="M0,0 L10,5 L0,10 z" fill="#000000"/>
    </marker>
  </defs>
  <g stroke="#cccccc" stroke-width="1">
    <line x1="42" y1="16" x2="42" y2="328"/>
    <line x1="68" y1="16" x2="68" y2="328"/>
    <line x1="94" y1="16" x2="94" y2="328"/>
    <line x1="120" y1="16" x2="120" y2="328"/>
    <line x1="172" y1="16" x2="172" y2="328"/>
    <line x1="198" y1="16" x2="198" y2="328"/>
    <line x1="224" y1="16" x2="224" y2="328"/>
    <line x1="250" y1="16" x2="250" y2="328"/>
    <line x1="276" y1="16" x2="276" y2="328"/>
    <line x1="302" y1="16" x2="302" y2="328"/>
    <line x1="42" y1="16" x2="302" y2="16"/>
    <line x1="42" y1="42" x2="302" y2="42"/>
    <line x1="42" y1="68" x2="302" y2="68"/>
    <line x1="42" y1="94" x2="302" y2="94"/>
    <line x1="42" y1="120" x2="302" y2="120"/>
    <line x1="42" y1="146" x2="302" y2="146"/>
    <line x1="42" y1="172" x2="302" y2="172"/>
    <line x1="42" y1="198" x2="302" y2="198"/>
    <line x1="42" y1="224" x2="302" y2="224"/>
    <line x1="42" y1="250" x2="302" y2="250"/>
    <line x1="42" y1="302" x2="302" y2="302"/>
    <line x1="42" y1="328" x2="302" y2="328"/>
  </g>
  <g stroke="#000000" stroke-width="1.4">
    <line x1="32" y1="276" x2="312" y2="276" marker-start="url(#ahq7)" marker-end="url(#ahq7)"/>
    <line x1="146" y1="338" x2="146" y2="6" marker-start="url(#ahq7)" marker-end="url(#ahq7)"/>
  </g>
  <line x1="42" y1="302" x2="302" y2="42" stroke="#000000" stroke-width="2" marker-start="url(#ahq7)" marker-end="url(#ahq7)"/>
  <line x1="133" y1="16" x2="289" y2="328" stroke="#000000" stroke-width="2" marker-start="url(#ahq7)" marker-end="url(#ahq7)"/>
  <g font-size="10" fill="#000000">
    <text x="42" y="292" text-anchor="middle">-4</text>
    <text x="94" y="292" text-anchor="middle">-2</text>
    <text x="198" y="292" text-anchor="middle">2</text>
    <text x="250" y="292" text-anchor="middle">4</text>
    <text x="302" y="292" text-anchor="middle">6</text>
    <text x="141" y="332" text-anchor="end">-2</text>
    <text x="141" y="228" text-anchor="end">2</text>
    <text x="141" y="176" text-anchor="end">4</text>
    <text x="141" y="124" text-anchor="end">6</text>
    <text x="141" y="72" text-anchor="end">8</text>
    <text x="141" y="20" text-anchor="end">10</text>
  </g>
  <g font-size="13" font-style="italic" fill="#000000">
    <text x="320" y="280">x</text>
    <text x="152" y="10">y</text>
    <text x="141" y="290" text-anchor="end">O</text>
  </g>
</svg>
