<svg xmlns="http://www.w3.org/2000/svg" viewBox="0 0 380 380" width="380" height="380" font-family="Georgia, serif">
  <defs>
    <marker id="aha16" viewBox="0 0 10 10" refX="8" refY="5" markerWidth="8" markerHeight="8" orient="auto-start-reverse">
      <path d="M0,0 L10,5 L0,10 z" fill="#000000"/>
    </marker>
  </defs>
  <g stroke="#cccccc" stroke-width="1">
    <line x1="42.0" y1="27" x2="42.0" y2="338"/>
    <line x1="61.1" y1="27" x2="61.1" y2="338"/>
    <line x1="80.2" y1="27" x2="80.2" y2="338"/>
    <line x1="99.4" y1="27" x2="99.4" y2="338"/>
    <line x1="118.5" y1="27" x2="118.5" y2="338"/>
    <line x1="137.6" y1="27" x2="137.6" y2="338"/>
    <line x1="156.8" y1="27" x2="156.8" y2="338"/>
    <line x1="175.9" y1="27" x2="175.9" y2="338"/>
    <line x1="195.0" y1="27" x2="195.0" y2="338"/>
    <line x1="214.1" y1="27" x2="214.1" y2="338"/>
    <line x1="233.2" y1="27" x2="233.2" y2="338"/>
    <line x1="252.4" y1="27" x2="252.4" y2="338"/>
    <line x1="271.5" y1="27" x2="271.5" y2="338"/>
    <line x1="290.6" y1="27" x2="290.6" y2="338"/>
    <line x1="309.8" y1="27" x2="309.8" y2="338"/>
    <line x1="328.9" y1="27" x2="328.9" y2="338"/>
    <line x1="348.0" y1="27" x2="348.0" y2="338"/>
    <line x1="42" y1="338.0" x2="348" y2="338.0"/>
    <line x1="42" y1="318.6" x2="348" y2="318.6"/>
    <line x1="42" y1="299.1" x2="348" y2="299.1"/>
    <line x1="42" y1="279.7" x2="348" y2="279.7"/>
    <line x1="42" y1="260.2" x2="348" y2="260.2"/>
    <line x1="42" y1="240.8" x2="348" y2="240.8"/>
    <line x1="42" y1="221.4" x2="348" y2="221.4"/>
    <line x1="42" y1="201.9" x2="348" y2="201.9"/>
    <line x1="42" y1="182.5" x2="348" y2="182.5"/>
    <line x1="42" y1="163.1" x2="348" y2="163.1"/>
    <line x1="42" y1="143.6" x2="348" y2="143.6"/>
    <line x1="42" y1="124.2" x2="348" y2="124.2"/>
    <line x1="42" y1="104.8" x2="348" y2="104.8"/>
    <line x1="42" y1="85.3" x2="348" y2="85.3"/>
    <line x1="42" y1="65.9" x2="348" y2="65.9"/>
    <line x1="42" y1="46.4" x2="348" y2="46.4"/>
    <line x1="42" y1="27.0" x2="348" y2="27.0"/>
  </g>
  <g stroke="#000000" stroke-width="1.4">
    <line x1="32" y1="240.8" x2="358" y2="240.8" marker-start="url(#aha16)" marker-end="url(#aha16)"/>
    <line x1="214.1" y1="348" x2="214.1" y2="17" marker-start="url(#aha16)" marker-end="url(#aha16)"/>
  </g>
  <ellipse cx="175.9" cy="182.5" rx="95.6" ry="97.2" fill="none" stroke="#000000" stroke-width="1.6"/>
  <g fill="#000000">
    <circle cx="175.9" cy="182.5" r="3"/>
    <circle cx="252.4" cy="124.2" r="3"/>
  </g>
  <text x="169.9" y="196.5" font-size="11" text-anchor="end" fill="#000000">(-2, 3)</text>
  <text x="259.4" y="117.2" font-size="11" text-anchor="start" fill="#000000">(2, 6)</text>
  <g font-size="10" fill="#000000">
    <text x="61.1" y="253.8" text-anchor="middle">-8</text>
    <text x="99.4" y="253.8" text-anchor="middle">-6</text>
    <text x="137.6" y="253.8" text-anchor="middle">-4</text>
    <text x="175.9" y="253.8" text-anchor="middle">-2</text>
    <text x="252.4" y="253.8" text-anchor="middle">2</text>
    <text x="290.6" y="253.8" text-anchor="middle">4</text>
    <text x="328.9" y="253.8" text-anchor="middle">6</text>
    <text x="207.1" y="322.6" text-anchor="end">-4</text>
    <text x="207.1" y="283.7" text-anchor="end">-2</text>
    <text x="207.1" y="205.9" text-anchor="end">2</text>
    <text x="207.1" y="167.1" text-anchor="end">4</text>
    <text x="207.1" y="128.2" text-anchor="end">6</text>
    <text x="207.1" y="89.3" text-anchor="end">8</text>
    <text x="207.1" y="50.4" text-anchor="end">10</text>
  </g>
  <g font-size="13" font-style="italic" fill="#000000">
    <text x="364.0" y="244.8">x</text>
    <text x="220.1" y="13.0">y</text>
    <text x="209.1" y="254.8" text-anchor="end">O</text>
  </g>
</svg>
